<svg width="68" height="68" viewBox="0 0 68 68" fill="none" xmlns="http://www.w3.org/2000/svg">
<g filter="url(#filter0_d_1_430)">
<circle cx="34" cy="32" r="30" fill="#301F80"/>
</g>
<path d="M51.3765 33.3938L43.7969 29.8954V19.8719C43.7934 19.6616 43.7297 19.4568 43.6133 19.2818C43.497 19.1068 43.3329 18.969 43.1406 18.8849L34.9375 15.1014C34.7935 15.0346 34.6368 15 34.4781 15C34.3195 15 34.1627 15.0346 34.0187 15.1014L25.8156 18.8849C25.6258 18.973 25.4651 19.1138 25.3527 19.2907C25.2402 19.4676 25.1807 19.6731 25.1812 19.8829V29.9064L17.6344 33.3938C17.4445 33.4819 17.2839 33.6227 17.1714 33.7996C17.059 33.9765 16.9995 34.182 17 34.3917V45.1171C16.9995 45.3269 17.059 45.5324 17.1714 45.7093C17.2839 45.8862 17.4445 46.027 17.6344 46.1151L25.8375 49.8986C25.9815 49.9654 26.1382 50 26.2969 50C26.4555 50 26.6123 49.9654 26.7562 49.8986L34.5 46.3235L42.2437 49.8986C42.3877 49.9654 42.5445 50 42.7031 50C42.8618 50 43.0185 49.9654 43.1625 49.8986L51.3656 46.1151C51.5555 46.027 51.7161 45.8862 51.8286 45.7093C51.941 45.5324 52.0005 45.3269 52 45.1171V34.3917C52.0015 34.1832 51.9436 33.9785 51.8332 33.8017C51.7228 33.625 51.5643 33.4835 51.3765 33.3938ZM42.714 36.947L37.125 34.3917L42.714 31.8146L48.3031 34.3917L42.714 36.947ZM41.6203 29.8845L34.5766 33.1744V24.7411C34.7084 24.7352 34.8381 24.7055 34.9594 24.6534L41.6094 21.5937V29.9064L41.6203 29.8845ZM34.5 17.2947L40.089 19.8719L34.5 22.4491L28.9219 19.8719L34.5 17.2947ZM26.2969 31.8036L31.8859 34.3808L26.2969 36.947L20.7078 34.3917L26.2969 31.8036ZM33.4062 44.4043L26.2969 47.6943V39.2609C26.4495 39.2518 26.5986 39.2107 26.7344 39.1403L33.3844 36.0696L33.4062 44.4043ZM49.8125 44.4043L42.7469 47.6943V39.2609C42.8845 39.2461 43.0182 39.2051 43.1406 39.1403L49.7906 36.0696L49.8125 44.4043Z" fill="#F5F5F5"/>
<defs>
<filter id="filter0_d_1_430" x="0" y="0" width="68" height="68" filterUnits="userSpaceOnUse" color-interpolation-filters="sRGB">
<feFlood flood-opacity="0" result="BackgroundImageFix"/>
<feColorMatrix in="SourceAlpha" type="matrix" values="0 0 0 0 0 0 0 0 0 0 0 0 0 0 0 0 0 0 127 0" result="hardAlpha"/>
<feOffset dy="2"/>
<feGaussianBlur stdDeviation="2"/>
<feComposite in2="hardAlpha" operator="out"/>
<feColorMatrix type="matrix" values="0 0 0 0 0 0 0 0 0 0 0 0 0 0 0 0 0 0 0.3 0"/>
<feBlend mode="normal" in2="BackgroundImageFix" result="effect1_dropShadow_1_430"/>
<feBlend mode="normal" in="SourceGraphic" in2="effect1_dropShadow_1_430" result="shape"/>
</filter>
</defs>
</svg>
