<svg width="68" height="68" viewBox="0 0 68 68" fill="none" xmlns="http://www.w3.org/2000/svg">
<g filter="url(#filter0_d_1_448)">
<circle cx="34" cy="32" r="30" fill="#301F80"/>
</g>
<path d="M33.6667 31.6667C32.0625 31.6667 30.6892 31.0955 29.5469 29.9531C28.4045 28.8108 27.8333 27.4375 27.8333 25.8333C27.8333 24.2292 28.4045 22.8559 29.5469 21.7135C30.6892 20.5712 32.0625 20 33.6667 20C35.2708 20 36.6441 20.5712 37.7865 21.7135C38.9288 22.8559 39.5 24.2292 39.5 25.8333C39.5 27.4375 38.9288 28.8108 37.7865 29.9531C36.6441 31.0955 35.2708 31.6667 33.6667 31.6667ZM22 43.3333V39.25C22 38.4236 22.2129 37.6638 22.6388 36.9706C23.0646 36.2774 23.6294 35.749 24.3333 35.3854C25.8403 34.6319 27.3715 34.0666 28.9271 33.6894C30.4826 33.3122 32.0625 33.124 33.6667 33.125C35.2708 33.125 36.8507 33.3136 38.4062 33.6908C39.9618 34.0681 41.4931 34.6329 43 35.3854C43.7049 35.75 44.2702 36.2789 44.696 36.9721C45.1219 37.6653 45.3343 38.4246 45.3333 39.25V43.3333H22ZM24.9167 40.4167H42.4167V39.25C42.4167 38.9826 42.3496 38.7396 42.2154 38.5208C42.0812 38.3021 41.9053 38.1319 41.6875 38.0104C40.375 37.3542 39.0503 36.8622 37.7135 36.5346C36.3767 36.2069 35.0278 36.0426 33.6667 36.0417C32.3056 36.0417 30.9566 36.206 29.6198 36.5346C28.283 36.8632 26.9583 37.3551 25.6458 38.0104C25.4271 38.1319 25.2506 38.3021 25.1165 38.5208C24.9823 38.7396 24.9157 38.9826 24.9167 39.25V40.4167ZM33.6667 28.75C34.4688 28.75 35.1556 28.4642 35.7273 27.8925C36.299 27.3208 36.5843 26.6344 36.5833 25.8333C36.5833 25.0312 36.2975 24.3444 35.7258 23.7727C35.1542 23.201 34.4678 22.9157 33.6667 22.9167C32.8646 22.9167 32.1777 23.2025 31.606 23.7742C31.0344 24.3458 30.749 25.0322 30.75 25.8333C30.75 26.6354 31.0358 27.3223 31.6075 27.894C32.1792 28.4656 32.8656 28.751 33.6667 28.75Z" fill="#F5F5F5"/>
<defs>
<filter id="filter0_d_1_448" x="0" y="0" width="68" height="68" filterUnits="userSpaceOnUse" color-interpolation-filters="sRGB">
<feFlood flood-opacity="0" result="BackgroundImageFix"/>
<feColorMatrix in="SourceAlpha" type="matrix" values="0 0 0 0 0 0 0 0 0 0 0 0 0 0 0 0 0 0 127 0" result="hardAlpha"/>
<feOffset dy="2"/>
<feGaussianBlur stdDeviation="2"/>
<feComposite in2="hardAlpha" operator="out"/>
<feColorMatrix type="matrix" values="0 0 0 0 0 0 0 0 0 0 0 0 0 0 0 0 0 0 0.3 0"/>
<feBlend mode="normal" in2="BackgroundImageFix" result="effect1_dropShadow_1_448"/>
<feBlend mode="normal" in="SourceGraphic" in2="effect1_dropShadow_1_448" result="shape"/>
</filter>
</defs>
</svg>
