<svg width="68" height="68" viewBox="0 0 68 68" fill="none" xmlns="http://www.w3.org/2000/svg">
<g filter="url(#filter0_d_1_457)">
<circle cx="34" cy="32" r="30" fill="#301F80"/>
</g>
<path d="M40.3333 30.0417C40.7465 30.0417 41.0931 29.9017 41.3731 29.6217C41.6531 29.3417 41.7926 28.9956 41.7916 28.5833C41.7916 28.1701 41.6516 27.8235 41.3716 27.5435C41.0916 27.2635 40.7455 27.124 40.3333 27.125C39.9201 27.125 39.5735 27.265 39.2935 27.545C39.0135 27.825 38.874 28.1711 38.875 28.5833C38.875 28.9965 39.015 29.3431 39.295 29.6231C39.575 29.9031 39.9211 30.0426 40.3333 30.0417ZM28.6666 27.125H35.9583V24.2083H28.6666V27.125ZM23.5625 44.625C22.7361 41.8542 21.9218 39.0892 21.1198 36.33C20.3177 33.5708 19.9166 30.7456 19.9166 27.8542C19.9166 25.6181 20.6944 23.7222 22.25 22.1667C23.8055 20.6111 25.7013 19.8333 27.9375 19.8333H35.2291C35.934 18.9097 36.791 18.1927 37.8002 17.6823C38.8093 17.1719 39.8968 16.9167 41.0625 16.9167C41.6701 16.9167 42.1868 17.1296 42.6127 17.5554C43.0385 17.9813 43.2509 18.4975 43.25 19.1042C43.25 19.25 43.2315 19.3958 43.1945 19.5417C43.1576 19.6875 43.1153 19.8212 43.0677 19.9427C42.9704 20.2101 42.8791 20.4838 42.7935 20.7638C42.7079 21.0438 42.6413 21.3291 42.5937 21.6198L45.9114 24.9375H49.0833V35.1094L44.9635 36.4583L42.5208 44.625H34.5V41.7083H31.5833V44.625H23.5625ZM25.75 41.7083H28.6666V38.7917H37.4166V41.7083H40.3333L42.5937 34.1979L46.1666 32.9948V27.8542H44.7083L39.6041 22.75C39.6041 22.2639 39.6348 21.7958 39.696 21.3456C39.7573 20.8955 39.8482 20.44 39.9687 19.9792C39.2638 20.1736 38.6441 20.5081 38.1093 20.9825C37.5746 21.4569 37.1857 22.0461 36.9427 22.75H27.9375C26.5277 22.75 25.3246 23.2483 24.3281 24.2448C23.3316 25.2413 22.8333 26.4444 22.8333 27.8542C22.8333 30.2361 23.1614 32.5636 23.8177 34.8367C24.4739 37.1097 25.118 39.4003 25.75 41.7083Z" fill="#F5F5F5"/>
<defs>
<filter id="filter0_d_1_457" x="0" y="0" width="68" height="68" filterUnits="userSpaceOnUse" color-interpolation-filters="sRGB">
<feFlood flood-opacity="0" result="BackgroundImageFix"/>
<feColorMatrix in="SourceAlpha" type="matrix" values="0 0 0 0 0 0 0 0 0 0 0 0 0 0 0 0 0 0 127 0" result="hardAlpha"/>
<feOffset dy="2"/>
<feGaussianBlur stdDeviation="2"/>
<feComposite in2="hardAlpha" operator="out"/>
<feColorMatrix type="matrix" values="0 0 0 0 0 0 0 0 0 0 0 0 0 0 0 0 0 0 0.3 0"/>
<feBlend mode="normal" in2="BackgroundImageFix" result="effect1_dropShadow_1_457"/>
<feBlend mode="normal" in="SourceGraphic" in2="effect1_dropShadow_1_457" result="shape"/>
</filter>
</defs>
</svg>
